<svg width="24" height="24" viewBox="0 0 24 24" fill="none" xmlns="http://www.w3.org/2000/svg">
<path opacity="0.5" d="M18 13C19.657 13 21 14.28 21 15.857C21 18.714 18 21 18 21C18 21 15 19 15 15.857C15 14.28 16.343 13 18 13ZM18 17C18.2652 17 18.5196 16.8946 18.7071 16.7071C18.8946 16.5196 19 16.2652 19 16C19 15.7348 18.8946 15.4804 18.7071 15.2929C18.5196 15.1054 18.2652 15 18 15C17.7348 15 17.4804 15.1054 17.2929 15.2929C17.1054 15.4804 17 15.7348 17 16C17 16.2652 17.1054 16.5196 17.2929 16.7071C17.4804 16.8946 17.7348 17 18 17Z" fill="black"/>
<path d="M9.99996 3.75C8.69696 3.75 7.67296 4.776 7.67296 6C7.67296 7.224 8.69596 8.25 9.99996 8.25C11.304 8.25 12.328 7.224 12.328 6C12.328 4.776 11.304 3.75 9.99996 3.75ZM6.17296 6C6.17296 3.91 7.90496 2.25 10.002 2.25C12.098 2.25 13.83 3.91 13.83 6C13.83 8.09 12.098 9.75 10.002 9.75C7.90596 9.75 6.16996 8.09 6.16996 6M7.46996 11.966C7.28696 11.849 7.14996 11.842 7.08596 11.859C6.94196 11.899 6.79896 11.9417 6.65696 11.987L5.67296 12.302C5.33585 12.4058 5.02758 12.5867 4.77259 12.8304C4.51759 13.0742 4.3229 13.3739 4.20396 13.706C4.17733 13.7946 4.16023 13.8858 4.15296 13.978L3.76196 17.677L3.75996 17.69C3.68496 18.217 3.96596 18.62 4.39296 18.72C5.46996 18.97 7.28396 19.25 9.99896 19.25C10.1979 19.25 10.3886 19.329 10.5293 19.4697C10.6699 19.6103 10.749 19.8011 10.749 20C10.749 20.1989 10.6699 20.3897 10.5293 20.5303C10.3886 20.671 10.1979 20.75 9.99896 20.75C7.18096 20.75 5.25196 20.458 4.05396 20.18C2.76496 19.881 2.11196 18.67 2.27296 17.493L2.66096 13.82C2.67896 13.648 2.71096 13.435 2.78696 13.216C2.98199 12.6639 3.30295 12.1648 3.72439 11.7583C4.14583 11.3518 4.65617 11.049 5.21496 10.874L6.19996 10.558C6.36196 10.5067 6.52463 10.4583 6.68796 10.413C7.29896 10.245 7.87996 10.446 8.28396 10.707C8.65396 10.947 9.25796 11.236 9.99896 11.236C10.739 11.236 11.343 10.946 11.713 10.706C12.116 10.446 12.698 10.245 13.309 10.413C13.4723 10.4583 13.635 10.5067 13.797 10.558L14.782 10.874C14.8777 10.9024 14.9668 10.9497 15.044 11.013C15.1212 11.0763 15.185 11.1544 15.2316 11.2427C15.2782 11.331 15.3068 11.4278 15.3155 11.5272C15.3243 11.6267 15.3131 11.7269 15.2826 11.822C15.2521 11.9171 15.2029 12.0051 15.1379 12.081C15.0729 12.1568 14.9935 12.2189 14.9042 12.2636C14.8149 12.3083 14.7176 12.3347 14.618 12.3413C14.5183 12.3479 14.4184 12.3345 14.324 12.302L13.34 11.987C13.1975 11.9414 13.0541 11.8987 12.91 11.859C12.847 11.842 12.71 11.849 12.528 11.966C12.015 12.298 11.128 12.736 9.99796 12.736C8.86796 12.736 7.98296 12.298 7.46996 11.966Z" fill="black"/>
</svg>
